<svg width="50" height="50" viewBox="0 0 50 50" fill="none" xmlns="http://www.w3.org/2000/svg">
<g clip-path="url(#clip0_53_259)">
<g filter="url(#filter0_f_53_259)">
<path fill-rule="evenodd" clip-rule="evenodd" d="M23.8892 16.6101C22.9929 18.8531 22.1297 22.5651 21.0871 18.2948C20.3052 15.2617 18.6345 20.1955 17.4195 21.0412C14.969 22.904 13.6128 25.5289 12.5244 28.341C9.64251 25.8905 10.7235 29.8234 10.5469 31.7468C10.704 34.6299 10.2342 37.7827 10.7788 40.4992C13.0658 42.492 14.7202 45.6373 18.1234 45.5968C20.4513 46.4059 20.1597 42.8858 22.2705 45.8068C24.2131 48.4693 25.4127 46.9126 26.6807 45.6028C28.5336 48.439 29.101 42.2094 30.6641 45.0036C33.0798 45.9435 35.2458 46.391 35.6421 43.2027C36.1382 40.6846 40.4675 40.6336 39.4532 37.6062C39.3117 34.4651 39.7342 31.0999 39.2456 28.0969C37.606 26.8172 36.3409 23.862 34.4727 23.6047C32.1612 24.7264 33.0518 19.7806 32.1006 18.3248C31.7896 14.5022 30.9708 16.2307 30.0806 18.8521C29.5881 22.626 27.5176 20.827 26.46 18.357C25.5191 17.5661 24.4471 13.3869 23.8892 16.6101Z" fill="#F3E517"/>
</g>
<g filter="url(#filter1_f_53_259)">
<mask id="mask0_53_259" style="mask-type:luminance" maskUnits="userSpaceOnUse" x="11" y="17" width="28" height="29">
<path d="M11.7188 36.8251L12.5 37.6063L13.6719 41.5126L14.0625 36.8251L15.2344 42.6844V35.2626L16.0156 37.2157L17.1875 42.6844V35.2626L17.9688 36.0438L19.1406 42.6844L20.3125 33.7001L22.8967 43.825L23.0469 37.6063L23.8281 35.2626L24.6094 45.0282L26.9531 35.2626L27.7344 43.4657L29.6875 34.8719L31.6406 44.2469L32.0312 37.2157L33.2031 34.8719L33.5938 43.8563L35.5469 35.2626L36.7188 39.1688L37.1094 35.6532L38.2812 37.9969V30.5751L37.1094 33.7001L36.7188 27.0594L35.9375 32.1376L35.1562 30.5751L34.7656 25.1063L32.8125 32.5282L32.4219 30.9657L31.25 19.2469L30.0781 29.4032L29.2969 32.5282L27.7344 21.9813L26.1719 30.9657L25.3906 33.3094L25 17.1748L22.6562 35.2626L20.3125 18.8563L19.1406 32.9188L18.3594 31.3563L17.5781 21.9813L17.1875 31.3563L16.0156 34.0907L15.2344 24.7157L14.4531 32.1376L13.2812 30.1844V35.6532L11.7188 29.7938V36.8251Z" fill="white"/>
</mask>
<g mask="url(#mask0_53_259)">
<path fill-rule="evenodd" clip-rule="evenodd" d="M10.9375 45.4187V16.9031H39.0625V45.4187H10.9375Z" fill="#FF7901"/>
<g filter="url(#filter2_f_53_259)">
<path fill-rule="evenodd" clip-rule="evenodd" d="M11.3281 31.3562L14.4531 33.3093L15.625 29.7937L17.5781 32.1375L19.9219 28.2312L20.7031 32.9187L21.4844 29.7937L22.6562 32.1375L23.0469 29.7937C23.0469 29.7937 24.2188 32.9187 24.2188 32.5281C24.2188 32.1375 25.7812 26.6687 25.7812 26.6687L27.3438 31.7468L29.6875 27.0593L30.8594 32.1375L32.8125 28.6218L33.9844 32.1375L35.9375 30.1843L38.2812 32.5281V35.6531L36.7188 36.825L34.375 36.0437L32.8125 35.2625L32.4219 39.1687L31.6406 35.2625L30.0781 38.7781L27.7344 35.2625L26.9531 38.7781L25.3906 36.4343L23.4375 41.5125L22.2656 35.6531L19.9219 36.825L18.3594 34.4812L17.5781 38.3875L16.0156 36.4343L14.4531 38.3875L13.6719 37.2156L11.3281 37.6062V31.3562Z" fill="#FF0101"/>
</g>
</g>
</g>
<mask id="mask1_53_259" style="mask-type:luminance" maskUnits="userSpaceOnUse" x="0" y="2" width="50" height="42">
<path d="M25 2.79175C19.8191 2.79175 15.0943 4.40925 11.6089 7.12524C8.1235 9.84124 5.85938 13.7273 5.85938 18.0505V19.613C2.39891 21.3663 -1.0376e-07 25.9656 0 31.3562C1.36719e-07 38.2562 3.92557 43.8562 8.98438 43.8562V18.0505C8.98438 14.813 10.6601 11.8334 13.5376 9.59106C16.4151 7.34876 20.4784 5.91675 25 5.91675C29.5216 5.91675 33.5849 7.34876 36.4624 9.59106C39.3399 11.8334 41.0156 14.813 41.0156 18.0505V43.8562C46.0744 43.8562 50 38.2562 50 31.3562C50 25.9656 47.6011 21.3663 44.1406 19.613V18.0505C44.1406 13.7273 41.8765 9.84124 38.3911 7.12524C34.9057 4.40925 30.1809 2.79175 25 2.79175ZM10.1562 19.2468V43.8562C10.9375 43.8562 11.7188 43.4656 12.1094 42.6843V20.0281C11.7188 19.6375 10.9375 19.2468 10.1562 19.2468ZM39.8438 19.2468C39.0625 19.2468 38.2812 19.6375 37.8906 20.0281V42.6843C38.2812 43.4656 39.0625 43.8562 39.8438 43.8562V19.2468Z" fill="white"/>
</mask>
<g mask="url(#mask1_53_259)">
<path d="M25 2.79175C19.8191 2.79175 15.0943 4.40925 11.6089 7.12524C8.1235 9.84124 5.85938 13.7273 5.85938 18.0505V19.613C2.39891 21.3663 -1.0376e-07 25.9656 0 31.3562C1.36719e-07 38.2562 3.92557 43.8562 8.98438 43.8562V18.0505C8.98438 14.813 10.6601 11.8334 13.5376 9.59106C16.4151 7.34876 20.4784 5.91675 25 5.91675C29.5216 5.91675 33.5849 7.34876 36.4624 9.59106C39.3399 11.8334 41.0156 14.813 41.0156 18.0505V43.8562C46.0744 43.8562 50 38.2562 50 31.3562C50 25.9656 47.6011 21.3663 44.1406 19.613V18.0505C44.1406 13.7273 41.8765 9.84124 38.3911 7.12524C34.9057 4.40925 30.1809 2.79175 25 2.79175ZM10.1562 19.2468V43.8562C10.9375 43.8562 11.7188 43.4656 12.1094 42.6843V20.0281C11.7188 19.6375 10.9375 19.2468 10.1562 19.2468ZM39.8438 19.2468C39.0625 19.2468 38.2812 19.6375 37.8906 20.0281V42.6843C38.2812 43.4656 39.0625 43.8562 39.8438 43.8562V19.2468Z" fill="black"/>
<g filter="url(#filter3_f_53_259)">
<path d="M23.4375 2.0105C18.2566 2.0105 13.5318 3.628 10.0464 6.34399C6.561 9.05999 3.51563 12.9461 3.51562 17.2693V18.0505C0.0551586 19.8038 -3.51563 24.4031 -3.51562 29.7937C-3.51562 36.6937 1.19119 40.7312 6.25 40.7312V21.9812C13.3643 -7.98804 7.42188 20.9896 7.42188 20.4187C7.42188 15.7312 10.3949 10.2541 12.8906 8.30933C15.7681 6.06702 18.9159 4.7937 23.4375 4.7937C27.9591 4.7937 32.0224 5.78626 34.8999 8.02856C37.7774 10.2709 39.4531 13.2505 39.4531 16.488V43.075C39.8914 43.075 40.2109 41.9897 40.625 41.9031C44.9905 40.9897 48.0469 36.0958 48.0469 29.7937C48.0469 24.4031 46.4292 21.3908 42.9688 19.6375L42.5781 16.488C42.5781 12.1648 40.314 8.27874 36.8286 5.56274C33.3432 2.84675 28.6184 2.0105 23.4375 2.0105ZM9.76562 17.6843L8.98438 41.9031C9.76562 41.9031 11.7188 41.5125 12.1094 40.7312V18.4656C11.7188 18.075 10.5469 17.6843 9.76562 17.6843ZM38.6719 17.6843C37.8906 17.6843 37.1094 18.075 36.7188 18.4656V41.1218C37.1094 41.9031 37.8906 42.6843 38.6719 42.6843V17.6843Z" fill="#0000CC"/>
</g>
</g>
<g filter="url(#filter4_f_53_259)">
<path fill-rule="evenodd" clip-rule="evenodd" d="M6.24997 21.9811C3.60683 22.8398 2.43347 26.4359 2.43347 29.5609C2.43347 26.4359 5.77124 23.5436 6.24997 21.9811ZM14.754 6.62207C9.89178 9.27727 8.892 11.6783 7.81247 14.1686C9.75837 11.4078 11.5758 8.56138 14.754 6.62207ZM10.8512 19.5205L10.9576 20.5312L10.2129 19.7333L10.3193 19.2014L10.8512 19.5205ZM42.607 19.8397L44.2028 22.3397L43.6177 22.8717L42.607 19.8397Z" fill="white"/>
</g>
</g>
<defs>
<filter id="filter0_f_53_259" x="4.64926" y="9.56576" width="40.7973" height="43.5367" filterUnits="userSpaceOnUse" color-interpolation-filters="sRGB">
<feFlood flood-opacity="0" result="BackgroundImageFix"/>
<feBlend mode="normal" in="SourceGraphic" in2="BackgroundImageFix" result="shape"/>
<feGaussianBlur stdDeviation="2.92" result="effect1_foregroundBlur_53_259"/>
</filter>
<filter id="filter1_f_53_259" x="11.0122" y="16.4683" width="27.9755" height="29.2666" filterUnits="userSpaceOnUse" color-interpolation-filters="sRGB">
<feFlood flood-opacity="0" result="BackgroundImageFix"/>
<feBlend mode="normal" in="SourceGraphic" in2="BackgroundImageFix" result="shape"/>
<feGaussianBlur stdDeviation="0.353262" result="effect1_foregroundBlur_53_259"/>
</filter>
<filter id="filter2_f_53_259" x="8.65313" y="23.9937" width="32.3031" height="20.1937" filterUnits="userSpaceOnUse" color-interpolation-filters="sRGB">
<feFlood flood-opacity="0" result="BackgroundImageFix"/>
<feBlend mode="normal" in="SourceGraphic" in2="BackgroundImageFix" result="shape"/>
<feGaussianBlur stdDeviation="1.3375" result="effect1_foregroundBlur_53_259"/>
</filter>
<filter id="filter3_f_53_259" x="-10.6934" y="-5.1673" width="65.9181" height="55.42" filterUnits="userSpaceOnUse" color-interpolation-filters="sRGB">
<feFlood flood-opacity="0" result="BackgroundImageFix"/>
<feBlend mode="normal" in="SourceGraphic" in2="BackgroundImageFix" result="shape"/>
<feGaussianBlur stdDeviation="3.5889" result="effect1_foregroundBlur_53_259"/>
</filter>
<filter id="filter4_f_53_259" x="0.836859" y="5.02546" width="44.9625" height="26.1322" filterUnits="userSpaceOnUse" color-interpolation-filters="sRGB">
<feFlood flood-opacity="0" result="BackgroundImageFix"/>
<feBlend mode="normal" in="SourceGraphic" in2="BackgroundImageFix" result="shape"/>
<feGaussianBlur stdDeviation="0.798306" result="effect1_foregroundBlur_53_259"/>
</filter>
<clipPath id="clip0_53_259">
<rect width="50" height="50" fill="white"/>
</clipPath>
</defs>
</svg>
