<svg width="50" height="50" viewBox="0 0 50 50" fill="none" xmlns="http://www.w3.org/2000/svg">
<g clip-path="url(#clip0_53_277)">
<path d="M25 50C38.8071 50 50 38.8071 50 25C50 11.1929 38.8071 0 25 0C11.1929 0 0 11.1929 0 25C0 38.8071 11.1929 50 25 50Z" fill="#23BEC7"/>
<path d="M25.582 25.4216C26.3132 24.7793 26.9067 24.1743 27.6895 23.8446C28.1483 23.6525 28.6558 23.3801 29.0916 23.8015C29.5274 24.223 29.2522 24.6847 29.1203 25.1377C28.8565 26.0466 28.5898 26.9584 28.349 27.8731C28.2773 28.1398 28.1569 28.4466 28.4293 28.6846C28.7017 28.9225 29.0429 28.7648 29.3124 28.6272C30.3102 28.1168 31.1217 27.5118 30.9955 26.1699C30.921 25.3671 30.9955 24.5126 31.7381 23.9392C32.0249 23.7127 32.3718 23.4489 32.736 23.7012C33.1001 23.9535 32.8392 24.2747 32.736 24.5614C32.3837 25.6427 32.2856 26.7907 32.4492 27.9161C32.4865 28.1684 32.4492 28.5326 32.6815 28.6244C32.9998 28.7448 33.1431 28.3376 33.3467 28.1713C33.5503 28.005 33.6879 27.7699 33.8657 27.5749C34.3359 27.0617 34.594 26.6516 33.9689 25.9492C33.2435 25.1377 33.4614 23.5492 34.1753 22.7951C34.3714 22.5593 34.6365 22.391 34.9333 22.3138C35.2301 22.2366 35.5437 22.2546 35.8298 22.365C36.452 22.5915 36.6556 23.1277 36.6728 23.7557C36.69 24.461 36.386 25.0804 36.148 25.7628C36.8419 25.9377 37.272 25.5477 37.662 25.1262C38.6025 24.1055 39.692 23.4575 41.1372 23.6094C42.1837 23.7184 42.783 24.2833 42.7285 25.1062C42.7079 25.2884 42.6439 25.4631 42.5419 25.6155C42.4398 25.7679 42.3028 25.8936 42.1421 25.982C41.9814 26.0705 41.8019 26.1192 41.6186 26.1239C41.4352 26.1287 41.2534 26.0894 41.0884 26.0094C40.7615 25.8345 40.8017 25.6739 41.0884 25.5076C41.1984 25.4599 41.2866 25.373 41.3359 25.2638C41.3852 25.1546 41.3921 25.0309 41.3551 24.9169C41.3099 24.7805 41.2248 24.6609 41.1108 24.5734C40.9968 24.486 40.8591 24.4349 40.7157 24.4266C40.3208 24.3679 39.9183 24.4578 39.5859 24.6789C38.5365 25.3499 37.9487 27.2136 38.439 28.3491C38.7258 29.0315 39.2591 29.1605 39.8125 28.676C40.1178 28.3834 40.348 28.0214 40.4834 27.6208C40.5643 27.3712 40.6791 27.1338 40.8246 26.9154C41.0855 26.5685 41.4468 26.2617 41.8999 26.4481C42.3529 26.6344 42.1206 27.1047 42.0461 27.423C41.7794 28.5269 41.5529 29.6021 42.4876 30.5311C42.5123 30.5537 42.5321 30.5811 42.5455 30.6117C42.559 30.6423 42.566 30.6754 42.566 30.7089C42.566 30.7423 42.559 30.7754 42.5455 30.806C42.5321 30.8366 42.5123 30.8641 42.4876 30.8867C42.4311 30.9421 42.3584 30.9781 42.28 30.9894C42.2017 31.0008 42.1217 30.9869 42.0518 30.9497C41.7276 30.836 41.4291 30.6594 41.1732 30.4302C40.9174 30.2009 40.7093 29.9234 40.5608 29.6136C40.4662 29.4071 40.4261 29.1061 40.0906 29.4014C39.8012 29.698 39.4144 29.8802 39.0014 29.9144C38.5884 29.9486 38.1769 29.8327 37.8426 29.5878C37.0283 29.0659 36.7358 28.2831 36.8104 27.3455C36.8247 27.162 36.8477 26.9843 36.8706 26.7721C35.933 26.8495 35.1703 27.0588 34.6341 27.919C34.1691 28.6298 33.5358 29.2148 32.7904 29.6222C31.8127 30.1956 31.4313 30.0179 31.1675 28.9426C31.1303 28.7935 31.0987 28.6559 31.0414 28.3692C30.4063 28.9379 29.6791 29.3946 28.8909 29.7197C27.4085 30.2472 26.5483 29.5677 26.7662 27.9993C26.9007 27.1938 27.1228 26.4053 27.4286 25.6481C27.4974 25.4617 27.6637 25.2323 27.4286 25.0746C27.2565 24.9657 27.0759 25.1492 26.9411 25.2639C26.0265 26.0409 25.2208 26.9011 24.957 28.1312C24.8957 28.4939 24.7918 28.8481 24.6473 29.1863C24.5602 29.4125 24.4001 29.6031 24.1923 29.7278C23.9844 29.8525 23.7409 29.9041 23.5004 29.8745C22.9843 29.7827 23.3169 29.2552 23.1735 28.9312C22.623 29.2179 22.0954 29.5046 21.5506 29.7541C21.1578 29.9347 20.6445 30.0781 20.3578 29.7397C19.879 29.1663 19.555 29.3641 19.0503 29.6853C18.3134 30.1555 17.4676 29.9548 16.7995 29.1777C16.4612 28.7849 16.2863 28.8107 15.9594 29.1605C15.2975 29.8434 14.5111 30.3933 13.6426 30.7806C10.2334 32.4006 6.8815 30.5827 6.69226 26.8266C6.46861 22.5858 8.27214 19.211 11.8161 16.8569C12.274 16.539 12.7967 16.3265 13.3465 16.2347C13.8963 16.143 14.4597 16.1744 14.996 16.3265C15.6251 16.491 16.1779 16.8682 16.5605 17.394C16.9431 17.9198 17.1319 18.5618 17.0948 19.211C17.053 19.8338 16.814 20.4272 16.4124 20.9051C16.0109 21.383 15.4675 21.7206 14.8612 21.869C14.6576 21.9149 14.3938 21.9951 14.2877 21.803C14.1272 21.545 14.3824 21.3701 14.5573 21.2296C15.5149 20.421 15.6784 19.3687 15.4977 18.2132C15.3257 17.1351 14.5573 16.6992 13.5336 17.0921C12.7989 17.397 12.1508 17.8786 11.647 18.4942C9.95361 20.3652 8.89486 22.7236 8.62195 25.2323C8.48395 26.3154 8.67686 27.4149 9.17534 28.3864C9.90364 29.777 11.1394 30.3935 12.6648 30.0322C13.8719 29.7305 14.9796 29.1198 15.8791 28.2602C16.0051 28.1284 16.1035 27.9728 16.1685 27.8024C16.2335 27.632 16.2638 27.4504 16.2576 27.2681C16.4669 25.089 18.3507 23.4546 20.4553 23.6152C20.963 23.631 21.4465 23.8354 21.8115 24.1886C21.985 24.3509 22.1038 24.563 22.1516 24.7956C22.1994 25.0283 22.1737 25.2701 22.0782 25.4875C21.8746 25.9807 21.4216 26.1413 20.9083 26.1155C20.801 26.1271 20.6925 26.112 20.5924 26.0715C20.4923 26.0309 20.4039 25.9663 20.3349 25.8832C20.1456 25.5965 20.5069 25.5764 20.6216 25.433C20.9427 25.0316 20.7621 24.5528 20.2116 24.441C19.9392 24.3798 19.6554 24.3922 19.3894 24.4768C19.1234 24.5615 18.8846 24.7153 18.6977 24.9227C18.3078 25.3185 18.0173 25.8011 17.8498 26.3309C17.6823 26.8607 17.6427 27.4226 17.7342 27.9706C17.7916 28.395 17.9722 28.8107 18.4396 28.9369C18.907 29.063 19.2109 28.7132 19.4976 28.3864C19.7099 28.1152 19.8632 27.8027 19.9478 27.4688C20.0164 27.1551 20.1868 26.8729 20.4324 26.666C20.7191 26.4452 21.0345 26.2646 21.3728 26.4624C21.7112 26.6602 21.5047 26.9929 21.5047 27.2681C21.5047 27.7728 20.96 28.3606 21.6338 28.7476C21.995 28.9541 23.4516 27.8559 23.5663 27.3398C23.747 26.5169 23.8932 25.6854 24.0566 24.8596C24.0768 24.5685 24.187 24.2909 24.372 24.0653C24.5113 23.9065 24.6958 23.794 24.9007 23.7427C25.1056 23.6915 25.3213 23.704 25.519 23.7786C25.9519 23.9593 25.7369 24.3521 25.6939 24.6847C25.6709 24.8825 25.6365 25.0832 25.582 25.4216ZM35.2678 23.512C35.1932 23.3112 35.0728 23.1163 34.8262 23.1421C34.5796 23.1679 34.508 23.3944 34.4879 23.6066C34.4563 23.9208 34.4993 24.238 34.6134 24.5324C34.7275 24.8269 34.9095 25.0903 35.1445 25.3011C35.4153 24.7431 35.4594 24.1019 35.2678 23.512Z" fill="white"/>
</g>
<defs>
<clipPath id="clip0_53_277">
<rect width="50" height="50" fill="white"/>
</clipPath>
</defs>
</svg>
