<svg xmlns="http://www.w3.org/2000/svg" xmlns:xlink="http://www.w3.org/1999/xlink" width="500" zoomAndPan="magnify" viewBox="0 0 375 374.999991" height="500" preserveAspectRatio="xMidYMid meet" version="1.0"><defs><clipPath id="68e4ce50cc"><path d="M 23.269531 123 L 257 123 L 257 331.386719 L 23.269531 331.386719 Z M 23.269531 123 " clip-rule="nonzero"/></clipPath><clipPath id="e130fa615c"><path d="M 118 43.386719 L 351.769531 43.386719 L 351.769531 252 L 118 252 Z M 118 43.386719 " clip-rule="nonzero"/></clipPath></defs><g clip-path="url(#68e4ce50cc)"><path fill="#096a89" d="M 43.386719 331.386719 C 41.496094 331.386719 39.667969 330.589844 38.378906 329.144531 C 36.785156 327.351562 36.269531 324.847656 37.027344 322.570312 L 50.175781 283.171875 C 33.027344 265.804688 23.277344 242.128906 23.277344 217.527344 C 23.277344 192.503906 33.042969 168.964844 50.78125 151.238281 C 68.519531 133.519531 92.082031 123.761719 117.128906 123.761719 L 162.582031 123.761719 C 214.335938 123.761719 256.4375 165.824219 256.4375 217.527344 C 256.4375 242.550781 246.667969 266.09375 228.929688 283.816406 C 211.191406 301.535156 187.632812 311.296875 162.582031 311.296875 L 140.546875 311.296875 L 44.757812 331.246094 C 44.300781 331.34375 43.84375 331.386719 43.386719 331.386719 Z M 117.128906 137.15625 C 95.664062 137.15625 75.46875 145.519531 60.261719 160.707031 C 45.058594 175.902344 36.683594 196.082031 36.683594 217.527344 C 36.683594 239.863281 46.0625 261.304688 62.414062 276.363281 C 64.355469 278.148438 65.066406 280.90625 64.230469 283.40625 L 53.433594 315.757812 L 138.488281 298.042969 C 138.941406 297.945312 139.398438 297.898438 139.855469 297.898438 L 162.582031 297.898438 C 184.050781 297.898438 204.246094 289.535156 219.449219 274.347656 C 234.65625 259.152344 243.03125 238.976562 243.03125 217.527344 C 243.03125 173.207031 206.945312 137.15625 162.582031 137.15625 Z M 117.128906 137.15625 " fill-opacity="1" fill-rule="nonzero"/></g><g clip-path="url(#e130fa615c)"><path fill="#096a89" d="M 331.652344 251.015625 C 331.199219 251.015625 330.742188 250.96875 330.285156 250.878906 L 247.828125 233.734375 C 244.207031 232.976562 241.878906 229.433594 242.628906 225.808594 C 243.382812 222.191406 246.886719 219.871094 250.566406 220.613281 L 321.609375 235.390625 L 310.8125 203.035156 C 309.976562 200.535156 310.691406 197.773438 312.628906 195.988281 C 328.980469 180.9375 338.355469 159.492188 338.355469 137.15625 C 338.355469 115.707031 329.984375 95.53125 314.78125 80.335938 C 299.574219 65.148438 279.375 56.785156 257.910156 56.785156 L 212.457031 56.785156 C 170.625 56.785156 135.429688 89.363281 132.328125 130.957031 C 132.054688 134.644531 128.84375 137.417969 125.148438 137.136719 C 121.453125 136.863281 118.683594 133.648438 118.960938 129.960938 C 122.582031 81.417969 163.648438 43.386719 212.457031 43.386719 L 257.910156 43.386719 C 282.957031 43.386719 306.519531 53.148438 324.261719 70.867188 C 341.996094 88.589844 351.761719 112.132812 351.761719 137.15625 C 351.761719 161.753906 342.007812 185.433594 324.863281 202.796875 L 338.007812 242.199219 C 338.769531 244.476562 338.257812 246.980469 336.660156 248.773438 C 335.378906 250.210938 333.542969 251.015625 331.652344 251.015625 Z M 331.652344 251.015625 " fill-opacity="1" fill-rule="nonzero"/></g><path fill="#096a89" d="M 177.46875 277.808594 C 174.804688 277.808594 172.289062 276.21875 171.238281 273.59375 L 137.242188 188.675781 L 103.246094 273.59375 C 101.863281 277.035156 97.960938 278.703125 94.527344 277.328125 C 91.089844 275.957031 89.417969 272.058594 90.792969 268.625 L 131.015625 168.160156 C 132.035156 165.613281 134.5 163.945312 137.242188 163.945312 C 139.980469 163.945312 142.445312 165.613281 143.46875 168.160156 L 183.691406 268.625 C 185.066406 272.058594 183.394531 275.957031 179.957031 277.328125 C 179.136719 277.65625 178.296875 277.808594 177.46875 277.808594 Z M 177.46875 277.808594 " fill-opacity="1" fill-rule="nonzero"/><path fill="#096a89" d="M 160.035156 240.96875 L 114.449219 240.96875 C 110.746094 240.96875 107.746094 237.972656 107.746094 234.273438 C 107.746094 230.570312 110.746094 227.574219 114.449219 227.574219 L 160.035156 227.574219 C 163.734375 227.574219 166.738281 230.570312 166.738281 234.273438 C 166.738281 237.972656 163.734375 240.96875 160.035156 240.96875 Z M 160.035156 240.96875 " fill-opacity="1" fill-rule="nonzero"/><path fill="#096a89" d="M 291.429688 117.0625 L 204.28125 117.0625 C 200.574219 117.0625 197.574219 114.066406 197.574219 110.363281 C 197.574219 106.664062 200.574219 103.667969 204.28125 103.667969 L 291.429688 103.667969 C 295.132812 103.667969 298.132812 106.664062 298.132812 110.363281 C 298.132812 114.066406 295.132812 117.0625 291.429688 117.0625 Z M 291.429688 117.0625 " fill-opacity="1" fill-rule="nonzero"/><path fill="#096a89" d="M 235.355469 177.34375 C 233.214844 177.34375 231.113281 176.320312 229.8125 174.417969 C 219.847656 159.832031 223.558594 101.359375 224.410156 89.78125 C 224.679688 86.097656 227.777344 83.285156 231.585938 83.59375 C 235.277344 83.863281 238.046875 87.074219 237.777344 90.761719 C 235.460938 122.539062 235.984375 159.695312 240.890625 166.871094 C 242.976562 169.925781 242.183594 174.089844 239.128906 176.175781 C 237.976562 176.960938 236.660156 177.34375 235.355469 177.34375 Z M 235.355469 177.34375 " fill-opacity="1" fill-rule="nonzero"/><path fill="#096a89" d="M 284.71875 190.738281 C 283.316406 190.738281 281.910156 190.300781 280.699219 189.394531 C 277.738281 187.171875 277.144531 182.980469 279.363281 180.015625 C 283.03125 175.144531 286.992188 168.160156 285.046875 162.59375 C 283.441406 158.019531 277.601562 154.109375 269.027344 151.878906 C 258.164062 148.957031 244.253906 148.917969 231.796875 151.789062 C 227.453125 152.78125 223.433594 154.101562 219.839844 155.71875 C 216.429688 157.242188 212.496094 155.730469 210.976562 152.371094 C 209.453125 149 210.949219 145.03125 214.328125 143.511719 C 218.726562 141.523438 223.597656 139.917969 228.796875 138.730469 C 243.296875 135.382812 259.636719 135.476562 272.464844 138.929688 C 285.765625 142.394531 294.511719 149.054688 297.699219 158.175781 C 300.832031 167.117188 298.265625 177.179688 290.085938 188.0625 C 288.769531 189.816406 286.753906 190.738281 284.71875 190.738281 Z M 284.71875 190.738281 " fill-opacity="1" fill-rule="nonzero"/><path fill="#096a89" d="M 239.082031 182.496094 C 237.125 182.496094 235.1875 181.644531 233.859375 180.003906 C 231.535156 177.132812 231.984375 172.914062 234.867188 170.585938 C 246.414062 161.265625 258.046875 149.28125 265.78125 140.871094 C 270.140625 136.050781 272.902344 132.832031 272.929688 132.800781 C 275.34375 129.988281 279.578125 129.671875 282.382812 132.066406 C 285.195312 134.472656 285.523438 138.707031 283.113281 141.511719 C 283.113281 141.511719 280.253906 144.855469 275.683594 149.890625 C 267.617188 158.675781 255.480469 171.167969 243.285156 181.011719 C 242.046875 182.011719 240.5625 182.496094 239.082031 182.496094 Z M 239.082031 182.496094 " fill-opacity="1" fill-rule="nonzero"/></svg>