<?xml version="1.0" encoding="utf-8"?>
<!-- Generator: Adobe Illustrator 27.0.1, SVG Export Plug-In . SVG Version: 6.00 Build 0)  -->
<svg version="1.1" xmlns="http://www.w3.org/2000/svg" xmlns:xlink="http://www.w3.org/1999/xlink" x="0px" y="0px"
	 viewBox="0 0 1080 1080" style="enable-background:new 0 0 1080 1080;" xml:space="preserve">
<style type="text/css">
	.st0{display:none;}
	.st1{display:inline;fill:#1D1D1B;stroke:#FFFFFF;stroke-width:30;stroke-miterlimit:10;}
	.st2{display:inline;fill:#FFFFFF;stroke:#1D1D1B;stroke-miterlimit:10;}
	.st3{fill:#FFFFFF;stroke:#1D1D1B;stroke-width:30;stroke-miterlimit:10;}
	.st4{display:inline;fill:#FFFFFF;stroke:#1D1D1B;stroke-width:30;stroke-miterlimit:10;}
	.st5{display:inline;fill:#FFFFFF;stroke:#1D1D1B;stroke-width:42;stroke-miterlimit:10;}
	.st6{display:inline;fill:none;stroke:#1D1D1B;stroke-width:42;stroke-miterlimit:10;}
	.st7{display:inline;fill:none;stroke:#1D1D1B;stroke-width:30;stroke-miterlimit:10;}
	.st8{fill:url(#SVGID_1_);stroke:#1D1D1B;stroke-width:8;stroke-miterlimit:10;}
	.st9{fill:none;stroke:#FFFFFF;stroke-width:30;stroke-miterlimit:10;}
	.st10{fill:none;stroke:#FFFFFF;stroke-width:42;stroke-miterlimit:10;}
</style>
<g id="Calque_3" class="st0">
	<rect x="-41.93" y="-18.08" class="st1" width="1155.67" height="1131.82"/>
</g>
<g id="Calque_1" class="st0">
	<circle class="st2" cx="540" cy="540" r="540"/>
	<polygon class="st3" points="523.37,190.04 523.37,532.56 360.01,532.56 362.87,526.56 396.94,455.13 	"/>
	<path class="st3" d="M532.83,166.01l-7.76-3.71l-0.62-0.29l-0.16,0.33l-0.92,1.93l-1.64,3.44L389.6,444.75l-39.02,81.81
		l-5.29,11.09L241.28,755.72c2.47,3.33,5,6.62,7.59,9.86l105.85-221.93h168.65v366.34h11.09V166.01H532.83z M360.01,532.56l2.86-6
		l34.07-71.43l126.43-265.09v342.52H360.01z"/>
	<path class="st4" d="M540,155.27c-5.09,0-10.15,0.1-15.19,0.29c-0.26,0.01-0.52,0.03-0.79,0.04
		c-201.54,8.37-362.38,174.42-362.38,378.03c0,84.5,27.71,162.54,74.52,225.52c2.52,3.38,5.09,6.73,7.72,10.03
		C313.2,856.2,420.09,911.99,540,911.99c208.96,0,378.36-169.4,378.36-378.36S748.96,155.27,540,155.27z M542.19,540
		c-2.1,0-4.19-0.03-6.27-0.09c-0.49-0.01-0.97-0.03-1.46-0.05v370.13h-11.09V543.65H354.72L248.87,765.58
		c-2.59-3.24-5.12-6.53-7.59-9.86l104.01-218.07l5.29-11.09l39.02-81.81l132.13-277.04l1.64-3.44l0.92-1.93l0.16-0.33l0.62,0.29
		l7.76,3.71h1.63v6.91c0.47-0.01,0.94-0.03,1.41-0.04c0.02-0.01,0.04-0.01,0.05,0c2.08-0.06,4.17-0.09,6.27-0.09
		c112.27,0,203.29,82.2,203.29,183.6C745.48,457.8,654.46,540,542.19,540z"/>
	<path class="st5" d="M745.48,356.39C745.48,457.8,654.46,540,542.19,540c-2.1,0-4.19-0.03-6.27-0.09
		c-0.49-0.01-0.97-0.03-1.46-0.05V172.92c0.47-0.01,0.94-0.03,1.41-0.04c0.02-0.01,0.04-0.01,0.05,0c2.08-0.06,4.17-0.09,6.27-0.09
		C654.46,172.79,745.48,254.99,745.48,356.39z"/>
	<path class="st6" d="M534.46,172.92v366.94c-3.73-0.11-7.42-0.33-11.09-0.64V173.57c2.69-0.23,5.39-0.4,8.11-0.53
		C532.47,172.99,533.46,172.95,534.46,172.92z"/>
	<rect x="523.37" y="166.01" class="st7" width="11.09" height="743.98"/>
	<path class="st7" d="M534.46,166.79l-0.04,0.09l-2.94,6.16l-8.11,17L396.94,455.13l-34.07,71.43l-2.86,6l-2.43,5.09l-2.86,6
		L248.87,765.58c-2.59-3.24-5.12-6.53-7.59-9.86l104.01-218.07l5.29-11.09l39.02-81.81l132.13-277.04l1.64-3.44l0.92-1.93l0.16-0.33
		l0.62,0.29l7.76,3.71L534.46,166.79z"/>
	<polygon class="st7" points="534.46,532.56 534.46,543.65 345.29,543.65 350.58,532.56 	"/>
</g>
<g id="Calque_1_-_copie">
	<linearGradient id="SVGID_1_" gradientUnits="userSpaceOnUse" x1="301.0725" y1="303.8445" x2="851.3995" y2="832.8192">
		<stop  offset="0" style="stop-color:#227E82"/>
		<stop  offset="0.9201" style="stop-color:#3AAAAF"/>
		<stop  offset="1" style="stop-color:#3AAAAF"/>
		<stop  offset="1" style="stop-color:#E95F32"/>
	</linearGradient>
	<circle class="st8" cx="536.7" cy="530.33" r="381.66"/>
	<path class="st9" d="M540,155.27c-5.09,0-10.15,0.1-15.19,0.29c-0.26,0.01-0.52,0.03-0.79,0.04
		c-201.54,8.37-362.38,174.42-362.38,378.03c0,84.5,27.71,162.54,74.52,225.52c2.52,3.38,5.09,6.73,7.72,10.03
		c68.8,86.37,174.62,141.98,293.44,142.8c207.44,1.44,378.14-165.6,381-373.02C921.23,327.56,750.73,155.27,540,155.27z
		 M533.09,568.84c-2.09-0.15,4.91-28.87,2.83-28.93l0,0c-0.8-0.02-1.46,0.63-1.46,1.43v368.65h-11.09L533.09,568.84H340.14
		l-91.27,196.74c-2.59-3.24-5.12-6.53-7.59-9.86l104.01-218.07l5.29-11.09l39.02-81.81l132.13-277.04l1.64-3.44l0.92-1.93l0.16-0.33
		l0.62,0.29l7.76,3.71h1.63v6.91c0.47-0.01,0.94-0.03,1.41-0.04c0.02-0.01,0.04-0.01,0.05,0c2.08-0.06,4.17-0.09,6.27-0.09
		c112.27,0,218.52,91.03,218.52,192.43C760.71,466.63,689.99,579.93,533.09,568.84z"/>
	<path class="st10" d="M761.54,373.58c0,110.91-97.95,200.8-218.76,200.8c-2.26,0-4.51-0.03-6.75-0.1
		c-0.53-0.01-1.04-0.03-1.57-0.05v-401.3c0.51-0.01,1.01-0.03,1.52-0.04c0.02-0.01,0.04-0.01,0.05,0c2.24-0.07,4.49-0.1,6.75-0.1
		C663.59,172.79,761.54,262.69,761.54,373.58z"/>
	<rect x="523.37" y="166.01" class="st9" width="11.09" height="743.98"/>
	<path class="st9" d="M534.46,166.79l-0.04,0.09l-2.94,6.16l-8.11,17L396.94,455.13l-34.07,71.43l-2.86,6l-2.43,5.09l-2.86,6
		L248.87,765.58c-2.59-3.24-5.12-6.53-7.59-9.86l104.01-218.07l5.29-11.09l39.02-81.81l132.13-277.04l1.64-3.44l0.92-1.93l0.16-0.33
		l0.62,0.29l7.76,3.71L534.46,166.79z"/>
	<polygon class="st9" points="534.46,568.84 534.46,579.93 345.29,579.93 350.58,568.84 	"/>
</g>
</svg>
