<svg width="50" height="50" viewBox="0 0 50 50" fill="none" xmlns="http://www.w3.org/2000/svg">
<path d="M13.6982 24.9778C13.6168 31.1645 18.8974 36.3259 25.0756 36.3259C31.2538 36.3259 36.3124 31.1651 36.3124 24.9778C36.3124 18.7906 31.2553 13.7788 25.0756 13.7788C16.8949 13.7788 13.7576 20.4613 13.6982 24.9778ZM25.0756 14.993C30.5828 14.993 34.9038 19.4626 34.9038 24.9778C34.9038 30.4931 30.5828 34.8705 25.0756 34.8705C19.5684 34.8705 15.1068 30.4931 15.1068 24.9778C15.1068 19.4626 19.5684 14.993 25.0756 14.993Z" fill="#1966CC"/>
<path d="M10.9279 24.9774C10.9279 32.9795 17.6251 38.9555 25.0753 38.9555C32.5254 38.9555 39.0344 32.8046 39.0344 24.9774C39.0344 17.1501 32.4694 10.9316 25.0753 10.9316C17.6812 10.9316 10.9279 16.635 10.9279 24.9774ZM25.0753 12.1998C31.4616 12.1998 37.6919 17.6836 37.6919 24.9774C37.6919 32.3199 32.0422 37.6143 25.0753 37.6143C17.7914 37.6143 12.3909 32.0276 12.3909 24.9774C12.3909 17.6593 18.1083 12.1998 25.0753 12.1998Z" fill="#1966CC"/>
<path d="M8.18787 24.9843C8.18787 34.6376 16.0923 41.7504 25.0798 41.7504C34.0673 41.7504 41.8712 34.4267 41.8712 24.9843C41.8712 15.5419 34.0549 8.14258 25.0798 8.14258C16.1047 8.14258 8.18787 15.0078 8.18787 24.9843ZM25.0798 9.53395C33.2111 9.53395 40.4515 16.1855 40.4515 24.9843C40.4515 33.8419 33.2912 40.408 24.8866 40.408C16.5344 40.408 9.50216 33.4893 9.50216 24.9843C9.50216 16.1561 16.6752 9.53395 25.0798 9.53395Z" fill="#1966CC"/>
<path d="M24.2003 16.8445H25.9808V33.0659H24.2003V16.8445Z" fill="#318BFF"/>
<path d="M20.4852 18.119C21.2001 17.5516 22.2657 17.2739 22.2657 17.2739V32.591C21.2558 32.3505 20.4974 31.7668 20.4974 31.7668L20.4852 18.119Z" fill="#318BFF"/>
<path d="M29.7176 18.0846C29.0028 17.5172 27.9371 17.2395 27.9371 17.2395V32.5566C28.947 32.3161 29.7054 31.7324 29.7054 31.7324L29.7176 18.0846Z" fill="#318BFF"/>
<path d="M18.5254 19.9744V29.8429C18.5254 29.8429 16.887 28.2412 16.887 24.9345C16.887 21.6277 18.5254 19.9744 18.5254 19.9744Z" fill="#318BFF"/>
<path d="M31.5425 19.9058V29.7743C31.5425 29.7743 33.1809 28.1726 33.1809 24.8659C33.1809 21.5591 31.5425 19.9058 31.5425 19.9058Z" fill="#318BFF"/>
<path d="M33.3528 8.29988L35.8452 3.81353L33.6293 2.8365L31.6243 7.56259L33.3528 8.29988Z" fill="#318BFF"/>
<path d="M29.7016 6.90828L31.1936 2.0461L28.7807 1.54235L27.8249 6.53946L29.7016 6.90828Z" fill="#318BFF"/>
<path d="M25.9298 6.31746L26.3685 1.2916L23.8557 1.27668L23.9804 6.32821L25.9298 6.31746Z" fill="#318BFF"/>
<path d="M22.0269 6.51013L21.3579 1.56458L18.8854 2.05192L20.1137 6.90977L22.0269 6.51013Z" fill="#318BFF"/>
<path d="M18.2457 7.52408L16.5149 2.88552L14.1957 3.84872L16.4561 8.29116L18.2457 7.52408Z" fill="#318BFF"/>
<path d="M14.7683 9.30969L12.0607 5.17862L9.98951 6.57134L13.1751 10.4074L14.7683 9.30969Z" fill="#318BFF"/>
<path d="M11.796 11.7338L8.25071 8.27341L6.50697 10.0246L10.4604 13.1063L11.796 11.7338Z" fill="#318BFF"/>
<path d="M9.33172 14.8018L5.08698 12.176L3.75201 14.2137L8.31595 16.3928L9.33172 14.8018Z" fill="#318BFF"/>
<path d="M7.59358 18.2466L2.84925 16.5449L1.96918 18.7707L6.93258 19.9791L7.59358 18.2466Z" fill="#318BFF"/>
<path d="M6.58398 22.0556L1.54061 21.3601L1.15957 23.672L6.31105 23.8504L6.58398 22.0556Z" fill="#318BFF"/>
<path d="M6.38961 25.9328L1.26343 26.2375L1.38541 28.5392L6.50691 27.7152L6.38961 25.9328Z" fill="#318BFF"/>
<path d="M7.01343 29.8297L2.00712 31.1547L2.63993 33.3827L7.5261 31.5505L7.01343 29.8297Z" fill="#318BFF"/>
<path d="M8.42928 33.5L3.76497 35.797L4.88205 37.8429L9.31574 35.0753L8.42928 33.5Z" fill="#318BFF"/>
<path d="M10.5714 36.7905L6.4564 39.9633L8.0103 41.7303L11.7939 38.1459L10.5714 36.7905Z" fill="#318BFF"/>
<path d="M13.2857 39.5123L9.88762 43.4121L11.806 44.8258L14.7876 40.5906L13.2857 39.5123Z" fill="#318BFF"/>
<path d="M16.5764 41.6635L14.0646 46.14L16.2755 47.1263L18.3011 42.408L16.5764 41.6635Z" fill="#318BFF"/>
<path d="M20.2558 43.0801L18.7519 47.9392L21.1631 48.4485L22.1313 43.4533L20.2558 43.0801Z" fill="#318BFF"/>
<path d="M24.1041 43.684L23.6748 48.7104L26.1881 48.721L26.0538 43.6699L24.1041 43.684Z" fill="#318BFF"/>
<path d="M27.9139 43.4987L28.5662 48.4474L31.0403 47.9676L29.8284 43.1049L27.9139 43.4987Z" fill="#318BFF"/>
<path d="M31.7074 42.4939L33.4251 47.1377L35.7468 46.1804L33.4992 41.7314L31.7074 42.4939Z" fill="#318BFF"/>
<path d="M35.1952 40.7145L37.8923 44.8524L39.9668 43.4642L36.791 39.6202L35.1952 40.7145Z" fill="#318BFF"/>
<path d="M38.2281 38.2421L41.7801 41.6959L43.5207 39.9419L39.5613 36.8674L38.2281 38.2421Z" fill="#318BFF"/>
<path d="M40.6359 35.249L44.8713 37.8886L46.213 35.8545L41.6569 33.6609L40.6359 35.249Z" fill="#318BFF"/>
<path d="M42.416 31.7294L47.163 33.4247L48.0399 31.198L43.0746 29.9962L42.416 31.7294Z" fill="#318BFF"/>
<path d="M43.4247 27.8916L48.4706 28.5732L48.8447 26.261L43.6922 26.0966L43.4247 27.8916Z" fill="#318BFF"/>
<path d="M43.6019 23.9177L48.7271 23.5748L48.5858 21.2753L43.4697 22.1371L43.6019 23.9177Z" fill="#318BFF"/>
<path d="M42.9505 20.0373L47.9486 18.6771L47.2983 16.4537L42.4243 18.3202L42.9505 20.0373Z" fill="#318BFF"/>
<path d="M41.5105 16.3826L46.1597 14.0544L45.0271 12.0164L40.6121 14.8135L41.5105 16.3826Z" fill="#318BFF"/>
<path d="M39.3954 13.1677L43.5016 9.98389L41.9422 8.22127L38.1686 11.8158L39.3954 13.1677Z" fill="#318BFF"/>
<path d="M36.6001 10.3946L39.9677 6.47003L38.0368 5.07125L35.0888 9.328L36.6001 10.3946Z" fill="#318BFF"/>
</svg>
