<svg width="143" height="50" viewBox="0 0 143 50" fill="none" xmlns="http://www.w3.org/2000/svg">
<g clip-path="url(#clip0_53_243)">
<path d="M42.856 42.4979C52.4981 32.8331 52.498 17.1635 42.856 7.49873C33.214 -2.16602 17.5812 -2.16602 7.93924 7.49872C-1.70277 17.1635 -1.70277 32.8331 7.93924 42.4979C17.5812 52.1626 33.214 52.1626 42.856 42.4979Z" fill="#75AADB"/>
<path d="M55.3415 32.3374C56.6247 33.1602 58.4577 33.7833 60.4342 33.7833C63.359 33.7833 65.0646 32.2336 65.0646 29.9968C65.0646 27.9597 63.885 26.7375 60.8964 25.6191C57.2861 24.301 55.0546 22.3917 55.0546 19.3002C55.0546 15.8412 57.9078 13.2769 62.2114 13.2769C64.4429 13.2769 66.1166 13.8041 67.0729 14.3633L66.2839 16.7039C65.5906 16.2725 64.1162 15.6494 62.1158 15.6494C59.0953 15.6494 57.9476 17.4628 57.9476 18.9727C57.9476 21.0497 59.2945 22.0642 62.3469 23.2545C66.0927 24.7004 67.9655 26.5138 67.9655 29.7731C67.9655 33.1922 65.471 36.1879 60.2509 36.1879C58.115 36.1879 55.7878 35.5328 54.6003 34.7419L55.3415 32.3374Z" fill="#4D4D4D"/>
<path d="M75.1781 16.0808V19.8993H79.3144V22.1041H75.1781V30.6918C75.1781 32.6649 75.736 33.7833 77.3458 33.7833C78.1348 33.7833 78.5971 33.7194 79.0195 33.5836L79.147 35.7884C78.5891 35.9881 77.7045 36.1799 76.5887 36.1799C75.2418 36.1799 74.158 35.7165 73.4726 34.9656C72.6836 34.0789 72.3568 32.6649 72.3568 30.7876V22.1041H69.8942V19.8993H72.3568V16.9356L75.1781 16.0808Z" fill="#4D4D4D"/>
<path d="M95.8595 31.4505C95.8595 33.1281 95.8914 34.574 95.987 35.8282H93.4287L93.2614 33.232H93.1976C92.4724 34.5181 90.7668 36.1957 87.9456 36.1957C85.451 36.1957 82.4624 34.7817 82.4624 29.2217V19.8992H85.3554V28.6865C85.3554 31.7142 86.3038 33.7912 88.9019 33.7912C90.8386 33.7912 92.1854 32.4411 92.7114 31.123C92.8788 30.7316 92.9744 30.2043 92.9744 29.6451V19.8992H95.8675V31.4505H95.8595Z" fill="#4D4D4D"/>
<path d="M114.349 12.4619V31.7142C114.349 33.1282 114.413 34.7418 114.477 35.8283H111.918L111.791 33.0642H111.695C110.843 34.8377 108.938 36.1877 106.34 36.1877C102.498 36.1877 99.5096 32.9284 99.5096 28.0874C99.4777 22.791 102.793 19.5637 106.635 19.5637C109.097 19.5637 110.707 20.714 111.432 21.9682H111.496V12.4619H114.349ZM111.488 26.3779C111.488 26.0184 111.456 25.5231 111.361 25.1636C110.93 23.3502 109.36 21.8404 107.192 21.8404C104.204 21.8404 102.435 24.4766 102.435 27.9596C102.435 31.1869 104.044 33.8551 107.129 33.8551C109.065 33.8551 110.843 32.537 111.361 30.3961C111.456 30.0047 111.488 29.6052 111.488 29.1419V26.3779Z" fill="#4D4D4D"/>
<path d="M122.391 15.4176C122.391 16.4082 121.697 17.1911 120.55 17.1911C119.498 17.1911 118.812 16.4002 118.812 15.4176C118.812 14.4271 119.537 13.6042 120.621 13.6042C121.665 13.6122 122.391 14.4031 122.391 15.4176ZM119.171 35.8282V19.8992H122.064V35.8282H119.171Z" fill="#4D4D4D"/>
<path d="M141.239 27.728C141.239 33.6155 137.135 36.1878 133.325 36.1878C129.053 36.1878 125.706 33.0243 125.706 27.9916C125.706 22.6952 129.221 19.5637 133.588 19.5637C138.155 19.5717 141.239 22.8949 141.239 27.728ZM128.663 27.8957C128.663 31.3867 130.631 34.0149 133.461 34.0149C136.218 34.0149 138.29 31.4186 138.29 27.8238C138.29 25.1237 136.943 21.7366 133.532 21.7366C130.137 21.7366 128.663 24.9 128.663 27.8957Z" fill="#4D4D4D"/>
<path d="M33.8473 32.8966H36.5252V34.9816H32.4367L25.6625 24.8042H22.0522V32.8966H25.5828V34.9816H16.6965V32.8966H19.7489V14.9624L16.6965 14.5869V12.6138C17.8521 12.8774 18.8563 13.0611 20.1155 13.0611C22.0123 13.0611 23.949 12.6138 25.8458 12.6138C29.5278 12.6138 32.9468 14.2914 32.9468 18.3895C32.9468 21.5609 31.05 23.574 28.1092 24.4288L33.8473 32.8966ZM22.0522 22.7911L23.9888 22.8311C28.7148 22.903 30.5319 21.0816 30.5319 18.6531C30.5319 15.8172 28.4837 14.6988 25.8856 14.6988C24.6583 14.6988 23.3911 14.8106 22.0522 14.9624V22.7911Z" fill="white"/>
<path d="M139.613 13.6123C138.585 13.6123 137.748 14.4511 137.748 15.4816C137.748 16.5121 138.585 17.3509 139.613 17.3509C140.641 17.3509 141.478 16.5121 141.478 15.4816C141.478 14.4511 140.641 13.6123 139.613 13.6123ZM141.175 15.4816C141.175 16.3444 140.474 17.0394 139.621 17.0394C138.76 17.0394 138.067 16.3364 138.067 15.4816C138.067 14.6189 138.768 13.9239 139.621 13.9239C140.474 13.9159 141.175 14.6189 141.175 15.4816Z" fill="#4D4D4D"/>
<path d="M140.275 16.2405L139.812 15.5615C140.075 15.4656 140.211 15.2739 140.211 15.0023C140.211 14.5949 139.868 14.4511 139.541 14.4511C139.454 14.4511 139.366 14.4591 139.286 14.4751C139.207 14.4831 139.119 14.491 139.039 14.491C138.928 14.491 138.84 14.4751 138.744 14.4511L138.697 14.4431V14.7067L138.968 14.7387V16.2405H138.697V16.5121H139.565V16.2405H139.255V15.6094H139.51L140.091 16.4882L140.107 16.5041H140.53V16.2325H140.275V16.2405ZM139.916 15.0263C139.916 15.1221 139.876 15.202 139.804 15.2579C139.717 15.3218 139.581 15.3538 139.406 15.3538H139.255V14.7387C139.366 14.7307 139.462 14.7227 139.549 14.7227C139.717 14.7227 139.916 14.7786 139.916 15.0263Z" fill="#4D4D4D"/>
</g>
<defs>
<clipPath id="clip0_53_243">
<rect width="142.188" height="50" fill="white"/>
</clipPath>
</defs>
</svg>
