<svg width="50" height="49" viewBox="0 0 50 49" fill="none" xmlns="http://www.w3.org/2000/svg">
<g clip-path="url(#clip0_53_292)">
<path d="M1.4289 17.4627C1.4289 17.4627 0.245292 16.6139 1.66562 15.4804L4.97479 12.5364C4.97479 12.5364 5.92168 11.5453 6.92281 12.4089L37.4599 35.4112V46.4414C37.4599 46.4414 37.4451 48.1734 35.211 47.982L1.4289 17.4627Z" fill="#2489CA"/>
<path d="M9.29992 24.5725L1.42892 31.6921C1.42892 31.6921 0.620125 32.2907 1.42892 33.3603L5.08331 36.6674C5.08331 36.6674 5.95129 37.5948 7.23353 36.5398L15.578 30.2446L9.29992 24.5725Z" fill="#1070B3"/>
<path d="M23.1186 24.6314L37.5537 13.665L37.46 2.69378C37.46 2.69378 36.8435 0.299341 34.787 1.54563L15.578 18.9397L23.1186 24.6314Z" fill="#0877B9"/>
<path d="M35.2111 47.9968C36.0495 48.8506 37.0654 48.5709 37.0654 48.5709L48.3146 43.0558C49.7547 42.0794 49.5525 40.8675 49.5525 40.8675V7.93407C49.5525 6.48661 48.0631 5.98613 48.0631 5.98613L38.3132 1.3101C36.1827 2.46591e-05 34.787 1.54562 34.787 1.54562C34.787 1.54562 36.5821 0.260077 37.46 2.69377V46.2403C37.46 46.5396 37.3959 46.834 37.2676 47.0989C37.0112 47.6141 36.4539 48.095 35.1174 47.8938L35.2111 47.9968Z" fill="#3C99D4"/>
</g>
<defs>
<clipPath id="clip0_53_292">
<rect width="50" height="48.8506" fill="white"/>
</clipPath>
</defs>
</svg>
